<?xml version="1.0" standalone="no"?>
<!DOCTYPE svg PUBLIC "-//W3C//DTD SVG 20010904//EN"
 "http://www.w3.org/TR/2001/REC-SVG-20010904/DTD/svg10.dtd">
<svg version="1.0" xmlns="http://www.w3.org/2000/svg"
 width="800.000000pt" height="800.000000pt" viewBox="0 0 800.000000 800.000000"
 preserveAspectRatio="xMidYMid meet">
<metadata>
Created by potrace 1.11, written by Peter Selinger 2001-2013
</metadata>
<g transform="translate(0.000000,800.000000) scale(0.100000,-0.100000)"
fill="#000000" stroke="none">
<path d="M1482 6338 c-121 -41 -146 -210 -40 -273 35 -20 84 -22 197 -6 178
26 260 -21 299 -168 13 -47 16 -194 19 -949 5 -1117 0 -1197 -79 -1279 -49
-50 -80 -56 -253 -48 -172 8 -201 1 -231 -57 -22 -43 -22 -116 1 -155 23 -39
79 -71 136 -79 47 -6 208 7 384 31 140 19 308 19 455 0 207 -27 334 -37 383
-30 59 7 121 44 142 84 33 65 10 158 -49 197 -23 14 -46 15 -189 9 -155 -7
-166 -6 -205 14 -25 13 -53 38 -68 63 -52 82 -53 114 -54 1123 0 937 4 1054
36 1136 37 91 134 131 267 110 109 -18 167 -17 205 3 99 51 95 200 -7 260 -44
25 -151 29 -301 10 -320 -40 -470 -41 -730 -4 -110 16 -282 20 -318 8z"/>
<path d="M4035 6340 c-223 -19 -437 -138 -574 -321 -70 -93 -118 -188 -158
-314 -27 -88 -28 -95 -28 -320 0 -216 2 -237 27 -347 77 -326 220 -576 493
-857 229 -237 554 -478 986 -735 l147 -86 108 66 c458 280 774 516 1019 759
335 333 482 618 529 1028 20 169 20 221 1 350 -55 368 -281 649 -600 747 -151
46 -389 45 -551 -2 -134 -40 -221 -96 -371 -242 l-134 -129 -117 115 c-116
114 -217 189 -307 228 -122 52 -297 75 -470 60z"/>
<path d="M1403 2945 c-31 -22 -32 -78 -1 -99 17 -12 38 -14 92 -10 68 6 72 5
96 -21 l25 -27 3 -469 c3 -527 3 -522 -64 -535 -19 -3 -58 -3 -86 0 -62 9 -88
-10 -88 -60 0 -25 7 -38 26 -50 21 -15 39 -16 127 -9 126 11 213 11 437 1 144
-7 188 -5 250 8 250 53 402 233 441 521 40 304 -83 590 -301 700 -112 57 -195
69 -390 60 -216 -11 -334 -11 -450 -1 -81 7 -98 5 -117 -9z m769 -136 c208
-44 322 -221 322 -504 0 -134 -16 -213 -64 -310 -79 -162 -215 -225 -460 -212
-128 7 -167 19 -178 55 -9 35 -9 899 0 934 5 16 19 30 35 36 38 14 280 15 345
1z"/>
<path d="M3292 2945 c-34 -25 -43 -45 -146 -330 -24 -66 -49 -131 -55 -145 -5
-14 -40 -106 -76 -205 -118 -321 -167 -444 -188 -466 -17 -19 -26 -20 -81 -14
-53 5 -64 3 -84 -15 -26 -25 -28 -57 -5 -89 16 -23 18 -24 122 -15 135 11 220
11 348 0 88 -8 106 -7 128 8 19 12 25 25 25 51 0 54 -27 66 -127 58 -72 -5
-86 -3 -103 12 -11 10 -20 28 -20 41 0 34 79 236 101 259 18 19 35 20 223 23
195 3 205 2 223 -17 21 -22 103 -246 103 -280 0 -33 -35 -44 -119 -37 -94 8
-121 -6 -121 -59 0 -26 6 -39 25 -51 23 -15 41 -16 143 -8 148 11 231 11 359
0 88 -8 106 -7 128 8 19 12 25 25 25 51 0 52 -26 65 -116 58 -119 -9 -123 -4
-227 287 -31 85 -69 191 -85 235 -16 44 -61 168 -100 275 -109 301 -122 334
-142 354 -27 27 -126 34 -158 11z m137 -365 c34 -107 71 -221 83 -252 32 -89
34 -88 -156 -88 -101 0 -167 4 -171 10 -9 14 165 544 175 533 4 -4 35 -96 69
-203z"/>
<path d="M4087 2946 c-9 -10 -18 -20 -18 -24 -1 -4 -2 -110 -3 -236 -1 -209 0
-232 17 -253 22 -28 77 -31 102 -7 14 14 16 40 13 178 -3 180 2 199 57 222 45
18 176 18 221 -1 63 -26 64 -33 64 -507 0 -233 -5 -441 -10 -463 -15 -64 -41
-79 -128 -71 -64 5 -75 3 -92 -14 -29 -29 -26 -76 6 -96 21 -15 39 -16 127 -9
131 11 226 11 360 0 96 -7 109 -6 127 10 28 25 27 79 -2 99 -17 12 -38 14 -92
10 -85 -8 -112 8 -126 71 -5 22 -10 230 -10 463 0 474 1 481 64 507 49 20 188
20 227 -1 51 -26 61 -68 53 -209 -8 -145 -2 -191 27 -200 31 -10 86 3 94 23
12 26 13 464 1 490 -14 33 -40 36 -220 26 -203 -11 -452 -11 -671 0 -155 8
-172 7 -188 -8z"/>
<path d="M5782 2935 c-19 -16 -40 -52 -60 -107 -17 -46 -74 -198 -126 -339
-52 -141 -100 -267 -105 -280 -5 -13 -35 -94 -67 -179 -92 -252 -95 -256 -184
-246 -52 6 -62 4 -80 -14 -26 -26 -26 -72 0 -95 18 -16 30 -17 117 -9 121 11
206 11 349 0 106 -8 112 -8 133 13 27 27 27 65 1 91 -19 19 -29 20 -108 14
-136 -10 -147 12 -86 175 51 136 58 147 95 155 17 3 111 6 208 6 140 0 181 -3
198 -15 27 -19 117 -259 109 -292 -8 -30 -40 -37 -131 -29 -71 6 -74 6 -94
-20 -27 -34 -26 -49 4 -79 21 -21 33 -25 89 -25 35 0 100 5 143 11 59 8 115 8
230 -2 138 -11 154 -11 177 5 32 20 35 67 7 95 -17 17 -29 19 -95 14 -119 -9
-130 3 -216 245 -27 75 -87 243 -135 372 -47 129 -105 289 -129 355 -58 160
-65 174 -97 191 -45 23 -113 18 -147 -11z m148 -367 c39 -123 78 -242 86 -265
9 -24 13 -47 9 -53 -4 -6 -69 -10 -171 -10 -135 0 -166 3 -170 15 -3 8 31 126
76 262 45 136 83 254 85 261 3 6 7 12 9 12 3 0 37 -100 76 -222z"/>
</g>
</svg>
