<?xml version="1.0" standalone="no"?>
<!DOCTYPE svg PUBLIC "-//W3C//DTD SVG 20010904//EN"
 "http://www.w3.org/TR/2001/REC-SVG-20010904/DTD/svg10.dtd">
<svg version="1.0" xmlns="http://www.w3.org/2000/svg"
 width="256.000000pt" height="256.000000pt" viewBox="0 0 256.000000 256.000000"
 preserveAspectRatio="xMidYMid meet">
<metadata>
Created by potrace 1.15, written by Peter Selinger 2001-2017
</metadata>
<g transform="translate(0.000000,256.000000) scale(0.100000,-0.100000)"
fill="#000000" stroke="none">
<path d="M1145 2530 c-265 -30 -499 -135 -714 -320 -82 -71 -212 -239 -268
-347 -108 -206 -149 -395 -140 -638 7 -172 28 -279 83 -418 119 -299 336 -531
629 -673 277 -134 594 -160 905 -74 108 30 301 128 400 202 206 157 365 377
443 619 78 238 76 552 -3 791 -132 394 -440 692 -840 812 -148 44 -345 62
-495 46z m423 -184 c432 -121 748 -477 813 -917 17 -121 7 -311 -25 -434 -94
-363 -382 -668 -736 -779 -262 -83 -540 -68 -788 42 -126 55 -224 123 -328
226 -151 151 -251 325 -305 532 -31 120 -34 367 -5 489 99 427 416 749 841
851 90 21 117 23 270 20 145 -3 184 -8 263 -30z"/>
<path d="M1520 1776 c-157 -62 -341 -135 -408 -161 -88 -34 -126 -54 -133 -69
-5 -12 -79 -201 -165 -421 -169 -432 -170 -435 -111 -463 26 -13 53 -4 440
148 384 151 447 179 447 202 0 5 70 186 155 403 85 217 155 403 155 415 0 29
-35 60 -67 59 -16 0 -156 -51 -313 -113z m177 -98 c-3 -7 -49 -124 -102 -260
-54 -137 -101 -248 -104 -248 -3 0 -77 71 -164 158 l-158 158 258 101 c142 56
262 102 267 103 4 0 6 -6 3 -12z m-315 -619 c-4 -3 -32 -15 -62 -26 -30 -12
-146 -57 -257 -101 l-202 -80 24 62 c50 130 177 451 182 459 3 5 77 -62 164
-149 87 -87 155 -161 151 -165z"/>
</g>
</svg>
